<svg width="12" height="14" viewBox="0 0 12 14" fill="none" xmlns="http://www.w3.org/2000/svg">
<path fill-rule="evenodd" clip-rule="evenodd" d="M0.333252 5.8785C0.333252 2.81193 2.89584 0.333332 5.99555 0.333332C9.104 0.333332 11.6666 2.81193 11.6666 5.8785C11.6666 7.42379 11.1046 8.85842 10.1796 10.0744C9.15912 11.4157 7.90136 12.5843 6.48561 13.5016C6.16159 13.7136 5.86917 13.7296 5.51355 13.5016C4.08974 12.5843 2.83198 11.4157 1.82025 10.0744C0.894574 8.85842 0.333252 7.42379 0.333252 5.8785ZM4.1294 6.05117C4.1294 7.07847 4.96769 7.88645 5.99555 7.88645C7.02408 7.88645 7.87043 7.07847 7.87043 6.05117C7.87043 5.03186 7.02408 4.18455 5.99555 4.18455C4.96769 4.18455 4.1294 5.03186 4.1294 6.05117Z" fill="white"/>
</svg>
