<svg width="20" height="22" viewBox="0 0 20 22" fill="none" xmlns="http://www.w3.org/2000/svg">
<path d="M1.87695 8.60002V7.72502H0.790338L1.02208 8.78664L1.87695 8.60002ZM18.1231 8.60002L18.978 8.78664L19.2097 7.72502H18.1231V8.60002ZM16.0188 18.2398L15.1639 18.0532L16.0188 18.2398ZM3.98129 18.2398L3.12642 18.4265L3.98129 18.2398ZM6.91227 21.475H13.0878V19.725H6.91227V21.475ZM7.78535 1.78346C5.07534 2.46515 3.75535 4.19268 3.14321 5.7454C2.84261 6.50787 2.71319 7.22225 2.65801 7.74443C2.63028 8.00682 2.62091 8.22441 2.61865 8.38016C2.61752 8.45815 2.61817 8.52096 2.61923 8.56649C2.61976 8.58927 2.62039 8.60775 2.62095 8.62169C2.62123 8.62866 2.6215 8.63449 2.62173 8.63916C2.62184 8.64149 2.62194 8.64353 2.62204 8.64528C2.62208 8.64615 2.62213 8.64695 2.62216 8.64767C2.62218 8.64804 2.62221 8.64852 2.62222 8.64871C2.62225 8.64917 2.62227 8.64963 3.49587 8.60002C4.36946 8.55042 4.36948 8.55084 4.36951 8.55123C4.36951 8.55134 4.36953 8.55172 4.36954 8.55194C4.36957 8.55237 4.36959 8.55274 4.3696 8.55303C4.36963 8.55362 4.36965 8.55394 4.36965 8.55397C4.36966 8.55405 4.3696 8.55303 4.36952 8.55094C4.36935 8.54676 4.36905 8.53833 4.36876 8.52589C4.36818 8.50101 4.36768 8.46022 4.36847 8.40551C4.37006 8.29587 4.37683 8.13164 4.39832 7.92834C4.44156 7.51914 4.54282 6.96666 4.77126 6.38724C5.21718 5.25615 6.14866 3.99968 8.21226 3.48059L7.78535 1.78346ZM16.5042 8.60002C17.3778 8.64964 17.3779 8.64919 17.3779 8.64872C17.3779 8.64854 17.3779 8.64805 17.3779 8.64769C17.378 8.64696 17.378 8.64616 17.3781 8.64529C17.3782 8.64354 17.3783 8.6415 17.3784 8.63917C17.3786 8.6345 17.3789 8.62867 17.3792 8.6217C17.3797 8.60777 17.3804 8.58928 17.3809 8.56651C17.3819 8.52097 17.3826 8.45816 17.3815 8.38018C17.3792 8.22442 17.3698 8.00683 17.3421 7.74444C17.2869 7.22227 17.1575 6.50789 16.8569 5.74541C16.2448 4.19268 14.9248 2.46515 12.2148 1.78346L11.7879 3.48059C13.8515 3.99968 14.783 5.25615 15.2289 6.38723C15.4573 6.96665 15.5586 7.51912 15.6018 7.92833C15.6233 8.13163 15.6301 8.29586 15.6316 8.4055C15.6324 8.46021 15.6319 8.50099 15.6314 8.52588C15.6311 8.53831 15.6308 8.54674 15.6306 8.55092C15.6305 8.55301 15.6305 8.55403 15.6305 8.55396C15.6305 8.55392 15.6305 8.55361 15.6305 8.55302C15.6305 8.55273 15.6305 8.55236 15.6306 8.55193C15.6306 8.55171 15.6306 8.55133 15.6306 8.55122C15.6306 8.55082 15.6307 8.55041 16.5042 8.60002ZM10.7694 0.525024H9.2308V2.27502H10.7694V0.525024ZM9.16681 4.67502H10.8334V2.92502H9.16681V4.67502ZM3.49587 9.47502H10.0001V7.72502H3.49587V9.47502ZM10.0001 9.47502H16.5042V7.72502H10.0001V9.47502ZM3.49587 7.72502H1.87695V9.47502H3.49587V7.72502ZM1.02208 8.78664L3.12642 18.4265L4.83616 18.0532L2.73182 8.41341L1.02208 8.78664ZM16.8737 18.4264L18.978 8.78664L17.2682 8.41341L15.1639 18.0532L16.8737 18.4264ZM18.1231 7.72502H16.5042V9.47502H18.1231V7.72502ZM10.8334 4.67502C11.9617 4.67502 12.8764 3.76034 12.8764 2.63202H11.1264C11.1264 2.79384 10.9952 2.92502 10.8334 2.92502V4.67502ZM7.12381 2.63202C7.12381 3.76034 8.03849 4.67502 9.16681 4.67502V2.92502C9.00499 2.92502 8.87381 2.79384 8.87381 2.63202H7.12381ZM9.2308 0.525024C8.06714 0.525024 7.12381 1.46836 7.12381 2.63202H8.87381C8.87381 2.43486 9.03364 2.27502 9.2308 2.27502V0.525024ZM12.8764 2.63202C12.8764 1.46836 11.933 0.525024 10.7694 0.525024V2.27502C10.9665 2.27502 11.1264 2.43486 11.1264 2.63202H12.8764ZM13.0878 21.475C14.9095 21.475 16.4852 20.2062 16.8737 18.4264L15.1639 18.0532C14.9509 19.0292 14.0868 19.725 13.0878 19.725V21.475ZM6.91227 19.725C5.9133 19.725 5.04921 19.0292 4.83616 18.0532L3.12642 18.4265C3.51493 20.2062 5.09063 21.475 6.91227 21.475V19.725Z" fill="#D1D5DB"/>
<path d="M11.4577 17.2193H8.44275C7.91958 17.2193 7.45176 16.8935 7.27033 16.4028L6.74637 14.9858H9.95022H13.1541L12.6301 16.4028L13.3336 16.6629L12.6301 16.4028C12.4487 16.8935 11.9809 17.2193 11.4577 17.2193Z" stroke="#D1D5DB" stroke-width="1.5"/>
</svg>
