<svg width="22" height="22" viewBox="0 0 22 22" fill="none" xmlns="http://www.w3.org/2000/svg">
<path d="M11.0197 1.40039C5.44219 1.40039 1.40063 5.95757 1.40063 11.0147C1.40063 12.6299 1.87103 14.2932 2.69662 15.8122C2.85022 16.0622 2.86942 16.3795 2.76382 16.6775L2.12063 18.8311C1.97663 19.3503 2.41822 19.7349 2.90782 19.581L4.84699 19.0042C5.37499 18.8311 5.78778 19.0523 6.27738 19.3503C7.67896 20.1771 9.42614 20.6002 11.0005 20.6002C15.7621 20.6002 20.6004 16.9179 20.6004 10.9859C20.6004 5.87104 16.4725 1.40039 11.0197 1.40039" stroke="#D1D5DB" stroke-width="1.5"/>
<mask id="path-2-inside-1_1390_13476" fill="white">
<path d="M6.60015 12.2C5.93452 12.1906 5.40015 11.6563 5.40015 10.9907C5.40015 10.3345 5.9439 9.79073 6.60015 9.80011C7.26577 9.80011 7.80015 10.3345 7.80015 11C7.80015 11.6563 7.26577 12.2 6.60015 12.2Z"/>
</mask>
<path d="M6.60015 9.80011L6.57872 11.3L6.58943 11.3001H6.60015V9.80011ZM6.62127 10.7001C6.76345 10.7021 6.90015 10.8238 6.90015 10.9907H3.90015C3.90015 12.4887 5.10559 13.6791 6.57902 13.6998L6.62127 10.7001ZM6.90015 10.9907C6.90015 11.0837 6.86102 11.1604 6.81182 11.2093C6.762 11.2589 6.67981 11.3014 6.57872 11.3L6.62157 8.30026C5.11603 8.27875 3.90015 9.51027 3.90015 10.9907H6.90015ZM6.60015 11.3001C6.43741 11.3001 6.30015 11.163 6.30015 11H9.30015C9.30015 9.50596 8.09413 8.30011 6.60015 8.30011V11.3001ZM6.30015 11C6.30015 10.8354 6.4298 10.7 6.60015 10.7V13.7C8.10174 13.7 9.30015 12.4771 9.30015 11H6.30015Z" fill="#D1D5DB" mask="url(#path-2-inside-1_1390_13476)"/>
<mask id="path-4-inside-2_1390_13476" fill="white">
<path d="M11.4002 12.2C10.7346 12.2 10.2002 11.6562 10.2002 11C10.2002 10.3344 10.7346 9.79999 11.4002 9.79999C12.0658 9.79999 12.6002 10.3344 12.6002 11C12.6002 11.6562 12.0658 12.2 11.4002 12.2Z"/>
</mask>
<path d="M11.4002 10.7C11.5706 10.7 11.7002 10.8354 11.7002 11H8.7002C8.7002 12.477 9.89853 13.7 11.4002 13.7V10.7ZM11.7002 11C11.7002 11.1628 11.563 11.3 11.4002 11.3V8.29999C9.90614 8.29999 8.7002 9.50594 8.7002 11H11.7002ZM11.4002 11.3C11.2374 11.3 11.1002 11.1628 11.1002 11H14.1002C14.1002 9.50594 12.8942 8.29999 11.4002 8.29999V11.3ZM11.1002 11C11.1002 10.8354 11.2298 10.7 11.4002 10.7V13.7C12.9019 13.7 14.1002 12.477 14.1002 11H11.1002Z" fill="#D1D5DB" mask="url(#path-4-inside-2_1390_13476)"/>
<mask id="path-6-inside-3_1390_13476" fill="white">
<path d="M16.2002 12.2C15.5346 12.2 15.0002 11.6562 15.0002 11C15.0002 10.3344 15.5346 9.79999 16.2002 9.79999C16.8659 9.79999 17.4002 10.3344 17.4002 11C17.4002 11.6562 16.8659 12.2 16.2002 12.2Z"/>
</mask>
<path d="M16.2002 10.7C16.3707 10.7 16.5002 10.8354 16.5002 11H13.5002C13.5002 12.477 14.6986 13.7 16.2002 13.7V10.7ZM16.5002 11C16.5002 11.1628 16.363 11.3 16.2002 11.3V8.29999C14.7062 8.29999 13.5002 9.50594 13.5002 11H16.5002ZM16.2002 11.3C16.0374 11.3 15.9002 11.1628 15.9002 11H18.9002C18.9002 9.50594 17.6943 8.29999 16.2002 8.29999V11.3ZM15.9002 11C15.9002 10.8354 16.0298 10.7 16.2002 10.7V13.7C17.7019 13.7 18.9002 12.477 18.9002 11H15.9002Z" fill="#D1D5DB" mask="url(#path-6-inside-3_1390_13476)"/>
</svg>
