<svg width="22" height="22" viewBox="0 0 22 22" fill="none" xmlns="http://www.w3.org/2000/svg">
<path d="M10.9999 20.6C10.9999 18.68 11.5759 14.84 13.8799 14.84C14.8399 14.8405 16.7599 15.6093 16.7599 18.6807M10.9999 20.6C13.1611 20.6 15.1554 19.8859 16.7599 18.6807M10.9999 20.6C7.82178 20.6 5.00435 19.0557 3.25715 16.6765M10.9999 1.40002C16.3018 1.40002 20.5999 5.69809 20.5999 11C20.5999 13.1613 19.8852 15.1555 18.6799 16.76M10.9999 1.40002C7.44655 1.40002 4.3441 3.33058 2.68421 6.20002M10.9999 1.40002C9.5599 7.16002 15.3199 5.24002 15.3199 6.68002C15.3199 8.12002 13.3999 11.48 16.7599 11.96C20.6987 12.5227 17.4044 15.4845 18.6799 16.76M2.68421 6.20002C1.86739 7.61206 1.3999 9.25145 1.3999 11C1.3999 13.1238 2.08956 15.0866 3.25715 16.6765M2.68421 6.20002C2.73611 6.52002 3.3199 7.16002 5.2399 7.16002C7.6399 7.16002 10.0399 5.72002 10.0399 7.64002C10.0399 9.56002 6.1999 10.04 6.1999 11.48C6.1999 14.1272 7.6644 17.3549 3.25715 16.6765M16.7599 18.6807C17.4871 18.1345 18.1337 17.4872 18.6799 16.76" stroke="#D1D5DB" stroke-width="1.5"/>
</svg>
