<svg width="20" height="22" viewBox="0 0 20 22" fill="none" xmlns="http://www.w3.org/2000/svg">
<path d="M11.8947 4.81395V8.5C11.8947 8.77614 11.6709 9 11.3947 9H8.60529C8.32915 9 8.10529 8.77614 8.10529 8.5V4.81395H6.6316C6.3796 4.81395 6.15176 4.66506 6.05182 4.4351C5.95189 4.20514 5.99897 3.93811 6.17169 3.75572L9.54006 0.197564C9.65942 0.0715092 9.82585 0 9.99998 0C10.1741 0 10.3405 0.0715092 10.4599 0.197564L13.8283 3.75572C14.001 3.93811 14.0481 4.20514 13.9482 4.4351C13.8482 4.66506 13.6204 4.81395 13.3684 4.81395H11.8947Z" fill="#FF4B22"/>
<path d="M8.10529 17.1861L8.10529 13.5C8.10529 13.2239 8.32915 13 8.60529 13L11.3947 13C11.6709 13 11.8947 13.2239 11.8947 13.5L11.8947 17.1861L13.3684 17.1861C13.6204 17.1861 13.8482 17.3349 13.9482 17.5649C14.0481 17.7949 14.001 18.0619 13.8283 18.2443L10.4599 21.8024C10.3406 21.9285 10.1742 22 10 22C9.82589 22 9.65946 21.9285 9.54011 21.8024L6.17168 18.2443C5.99897 18.0619 5.95188 17.7949 6.05182 17.5649C6.15176 17.3349 6.37964 17.1861 6.6316 17.1861L8.10529 17.1861Z" fill="#FF4B22"/>
<rect y="10" width="20" height="2" rx="1" fill="#FF4B22"/>
</svg>
