<svg width="20" height="20" viewBox="0 0 20 20" fill="none" xmlns="http://www.w3.org/2000/svg">
<path d="M19.1666 9.99998H14.5833M19.1666 9.99998C19.1666 12.4016 18.243 14.5875 16.7317 16.2219M19.1666 9.99998C19.1666 7.59838 18.243 5.41249 16.7317 3.77809M9.99992 19.1666C8.51988 18.4028 5.55981 15.5 5.55981 9.99998M9.99992 19.1666C11.5277 18.4028 14.5833 15.5 14.5833 9.99998M9.99992 19.1666C7.33891 19.1666 4.94273 18.0328 3.26815 16.2219M9.99992 19.1666V14.1536M9.99992 19.1666C12.6609 19.1666 15.0571 18.0328 16.7317 16.2219M0.833252 9.99998H5.55981M0.833252 9.99998C0.833252 12.4016 1.75681 14.5875 3.26815 16.2219M0.833252 9.99998C0.833252 7.59838 1.75681 5.41249 3.26815 3.77809M9.99992 0.833313C8.51988 2.02689 5.55981 5.53123 5.55981 9.99998M9.99992 0.833313C11.5277 2.02689 14.5833 5.53123 14.5833 9.99998M9.99992 0.833313V5.98956M9.99992 0.833313C12.6609 0.833313 15.0571 1.96717 16.7317 3.77809M9.99992 0.833313C7.33891 0.833313 4.94273 1.96717 3.26815 3.77809M5.55981 9.99998H14.5833M3.26815 16.2219C3.26815 16.2219 5.55981 14.1536 9.99992 14.1536M9.99992 14.1536C14.5833 14.1536 16.7317 16.2219 16.7317 16.2219M9.99992 14.1536V5.98956M9.99992 5.98956C14.5833 5.98956 16.7317 3.77809 16.7317 3.77809M9.99992 5.98956C5.55981 5.98956 3.26815 3.77809 3.26815 3.77809" stroke="#FF4B22" stroke-width="1.2"/>
</svg>
