<svg width="36" height="36" viewBox="0 0 36 36" fill="none" xmlns="http://www.w3.org/2000/svg">
<path d="M16.3301 22.5928H10.0294" stroke="#FF4B22" stroke-width="1.5" stroke-linecap="round" stroke-linejoin="round"/>
<path d="M19.1405 12.9004H25.4412" stroke="#FF4B22" stroke-width="1.5" stroke-linecap="round" stroke-linejoin="round"/>
<path fill-rule="evenodd" clip-rule="evenodd" d="M14.7263 12.8463C14.7263 11.5506 13.6681 10.5 12.3631 10.5C11.0582 10.5 10 11.5506 10 12.8463C10 14.1419 11.0582 15.1925 12.3631 15.1925C13.6681 15.1925 14.7263 14.1419 14.7263 12.8463Z" fill="#FF4B22" stroke="#FF4B22" stroke-width="1.5" stroke-linecap="round" stroke-linejoin="round"/>
<path fill-rule="evenodd" clip-rule="evenodd" d="M26 22.5538C26 21.2581 24.9427 20.2075 23.6377 20.2075C22.3319 20.2075 21.2737 21.2581 21.2737 22.5538C21.2737 23.8494 22.3319 24.9 23.6377 24.9C24.9427 24.9 26 23.8494 26 22.5538Z" fill="#FF4B22" stroke="#FF4B22" stroke-width="1.5" stroke-linecap="round" stroke-linejoin="round"/>
<rect x="0.5" y="0.5" width="35" height="35" rx="7.5" stroke="#FF4B22"/>
</svg>
