<svg width="22" height="22" viewBox="0 0 22 22" fill="none" xmlns="http://www.w3.org/2000/svg">
<path d="M21.501 11.2331C21.501 10.3698 21.4296 9.73975 21.2748 9.08643H11.2153V12.983H17.12C17.001 13.9514 16.3582 15.4097 14.9296 16.3897L14.9096 16.5202L18.0902 18.9349L18.3106 18.9564C20.3343 17.1247 21.501 14.4297 21.501 11.2331Z" fill="#2380CC"/>
<path d="M11.2145 21.5C14.1073 21.5 16.5358 20.5666 18.3097 18.9566L14.9287 16.3898C14.024 17.0082 12.8097 17.4399 11.2145 17.4399C8.38118 17.4399 5.97645 15.6082 5.11922 13.0765L4.99358 13.087L1.68632 15.5954L1.64307 15.7132C3.40495 19.1432 7.02399 21.5 11.2145 21.5Z" fill="#00C274"/>
<path d="M5.11997 13.0766C4.89379 12.4233 4.76289 11.7232 4.76289 10.9999C4.76289 10.2765 4.89379 9.57657 5.10807 8.92325L5.10208 8.78411L1.75337 6.23547L1.64381 6.28655C0.917647 7.7099 0.500977 9.30826 0.500977 10.9999C0.500977 12.6916 0.917647 14.2899 1.64381 15.7132L5.11997 13.0766Z" fill="#FCB716"/>
<path d="M11.2145 4.55997C13.2264 4.55997 14.5835 5.41163 15.3574 6.12335L18.3812 3.23C16.5241 1.53834 14.1074 0.5 11.2145 0.5C7.02402 0.5 3.40496 2.85665 1.64307 6.28662L5.10734 8.92332C5.97647 6.39166 8.38122 4.55997 11.2145 4.55997Z" fill="#F3392E"/>
</svg>
