<svg width="20" height="20" viewBox="0 0 20 20" fill="none" xmlns="http://www.w3.org/2000/svg">
<path fill-rule="evenodd" clip-rule="evenodd" d="M14.2412 5.45704C13.2195 4.47232 11.856 3.93587 10.4452 3.95791C7.86366 3.95791 5.67115 5.7179 4.88939 8.08782C4.47489 9.32973 4.47489 10.6746 4.88939 11.9165H4.89302C5.6784 14.2828 7.86728 16.0428 10.4489 16.0428C11.7815 16.0428 12.9255 15.6983 13.8122 15.0899V15.0875C14.8557 14.3893 15.5684 13.2907 15.7902 12.0488H10.4452V8.19811H19.7789C19.8953 8.86684 19.9498 9.55026 19.9498 10.23C19.9498 13.2714 18.8742 15.8428 17.0027 17.5844L17.0046 17.586C15.3648 19.1145 13.1141 20 10.4452 20C6.70376 20 3.28226 17.8689 1.60242 14.4922C0.198929 11.6667 0.198932 8.33772 1.60243 5.51218C3.28227 2.1318 6.70376 0.000673865 10.4452 0.000673865C12.9032 -0.0287207 15.2775 0.904556 17.0664 2.60209L14.2412 5.45704Z" fill="#111827"/>
</svg>
