<svg width="34" height="28" viewBox="0 0 34 28" fill="none" xmlns="http://www.w3.org/2000/svg">
<path d="M3.38227 3.98477C3.66742 3.69962 4.05415 3.53943 4.45741 3.53943C4.86067 3.53943 5.2474 3.69962 5.53255 3.98477L14.492 12.9443C14.6821 13.1344 14.94 13.2411 15.2088 13.2411C15.4776 13.2411 15.7355 13.1344 15.9256 12.9443C16.1157 12.7542 16.2224 12.4963 16.2224 12.2275C16.2224 11.9587 16.1157 11.7008 15.9256 11.5107L12.2945 7.87963L12.412 7.75062C12.8492 7.27899 13.3137 6.826 13.6205 6.61957C13.8513 6.46619 14.1795 6.33574 14.5236 6.23826C14.6942 6.18808 14.9493 6.23396 15.1887 6.47335L18.0758 9.36046C18.2659 9.55056 18.5238 9.65735 18.7926 9.65735C19.0614 9.65735 19.3193 9.55056 19.5094 9.36046C19.6994 9.17036 19.8062 8.91254 19.8062 8.6437C19.8062 8.37486 19.6994 8.11704 19.5094 7.92694L17.2659 5.68349L17.4035 5.5172C17.8221 5.0298 18.2264 4.66569 18.4758 4.55961C18.7109 4.45639 19.2026 4.42629 19.7889 4.47933C20.0426 4.50083 20.2763 4.53667 20.4469 4.56391L22.3764 6.49342C22.5665 6.68352 22.8243 6.79031 23.0931 6.79031C23.362 6.79032 23.6198 6.68352 23.8099 6.49342C24 6.30333 24.1068 6.0455 24.1068 5.77666C24.1068 5.50783 24 5.25 23.8099 5.05991L22.3764 3.62639L22.8667 3.13612C23.067 2.93578 23.3071 2.77965 23.5715 2.67781C23.8359 2.57597 24.1187 2.53068 24.4017 2.54486C24.6846 2.55905 24.9615 2.63238 25.2144 2.76015C25.4673 2.88792 25.6906 3.06727 25.8699 3.28664L29.3734 7.56713C29.8234 8.11746 30.1526 8.75631 30.3396 9.44217L31.8405 14.9426C31.8875 15.1149 31.8882 15.2967 31.8423 15.4694C31.7965 15.6421 31.7059 15.7996 31.5796 15.926L22.5455 24.96C22.4125 25.093 22.2452 25.1864 22.0621 25.2297C21.8791 25.273 21.6876 25.2645 21.5091 25.2051L16.2094 23.4376L6.60912 21.0393C6.36149 20.9767 6.14524 20.8259 6.001 20.6151C5.85676 20.4043 5.79445 20.1481 5.82578 19.8946C5.85712 19.6411 5.97994 19.4078 6.17116 19.2385C6.36239 19.0691 6.60887 18.9755 6.86429 18.9751L13.7738 18.9751C13.9744 18.9753 14.1706 18.9161 14.3374 18.8048C14.5043 18.6935 14.6344 18.5353 14.7113 18.35C14.7882 18.1648 14.8084 17.9609 14.7694 17.7641C14.7304 17.5674 14.6338 17.3867 14.492 17.2448L3.38227 6.13504C3.09713 5.8499 2.93693 5.46316 2.93693 5.0599C2.93693 4.65665 3.09713 4.26991 3.38227 3.98477ZM10.8595 6.44468L6.96607 2.55125C6.30073 1.88591 5.39834 1.51213 4.45741 1.51213C3.51648 1.51213 2.61409 1.88591 1.94875 2.55125C1.28342 3.21658 0.909633 4.11898 0.909634 5.0599C0.909633 6.00083 1.28342 6.90322 1.94875 7.56856L11.3283 16.9481L6.86429 16.9481C6.11529 16.9501 5.39278 17.2255 4.83237 17.7224C4.27195 18.2193 3.91215 18.9037 3.82048 19.6471C3.72882 20.3905 3.91158 21.1417 4.33449 21.7599C4.75739 22.3781 5.39136 22.8207 6.11742 23.0047L15.6417 25.3872L20.8669 27.1289C21.4028 27.3075 21.9778 27.3332 22.5274 27.2033C23.0771 27.0735 23.5798 26.793 23.9791 26.3935L33.0131 17.3595C33.392 16.9804 33.6639 16.5078 33.8014 15.9897C33.9388 15.4716 33.9369 14.9264 33.7958 14.4093L32.2963 8.91034C32.0343 7.94906 31.5727 7.05375 30.9417 6.2827L27.4381 2.00221C27.0794 1.56379 26.6328 1.2054 26.1271 0.950137C25.6214 0.694877 25.0679 0.548411 24.5021 0.520183C23.9363 0.491956 23.3709 0.582593 22.8423 0.78625C22.3138 0.989907 21.8337 1.30207 21.4331 1.7026L20.6003 2.53548C20.3894 2.50363 20.1776 2.47829 19.9652 2.4595C19.3631 2.40503 18.4199 2.37636 17.6773 2.6946C16.9462 3.00711 16.2753 3.71813 15.8625 4.19979L15.6905 4.40622C15.1472 4.16817 14.538 4.12661 13.9674 4.28867C13.4474 4.42826 12.9515 4.64576 12.4966 4.93376C11.9633 5.28927 11.3541 5.90998 10.9254 6.37301L10.8595 6.44468Z" fill="#374151"/>
</svg>
