<svg width="34" height="16" viewBox="0 0 34 16" fill="none" xmlns="http://www.w3.org/2000/svg">
<path d="M14.2642 6.4166C14.2642 6.4166 15.679 5.53607 17.0055 5.53607C18.3319 5.53607 19.5699 6.4166 19.5699 6.4166" stroke="#E63F19" stroke-width="1.5"/>
<path d="M14.4293 7.80002C14.4293 11.4819 11.423 14.4666 7.71464 14.4666C6.18471 14.4666 4.77429 13.9586 3.64516 13.1032C2.03742 11.8852 1 9.96289 1 7.80002C1 5.37437 2.30481 3.25129 4.25559 2.08492C5.26586 1.48087 6.44938 1.13342 7.71464 1.13342C11.423 1.13342 14.4293 4.11816 14.4293 7.80002Z" fill="#E63F19" stroke="#E63F19" stroke-width="1.46666"/>
<path d="M32.9998 7.80002C32.9998 8.43033 32.9117 9.04021 32.7471 9.61818C32.0033 12.229 29.6977 14.1887 26.8956 14.4394C26.6946 14.4574 26.491 14.4666 26.2852 14.4666C24.7553 14.4666 23.3448 13.9586 22.2157 13.1032C21.1872 12.324 20.392 11.2565 19.9526 10.0222C19.7052 9.32716 19.5706 8.5792 19.5706 7.80002C19.5706 5.37437 20.8754 3.25129 22.8261 2.08492C23.8364 1.48087 25.0199 1.13342 26.2852 1.13342C29.9936 1.13342 32.9998 4.11816 32.9998 7.80002Z" fill="#E63F19" stroke="#E63F19" stroke-width="1.46666"/>
<path d="M1 7.80006C1 9.96293 2.03742 11.8852 3.64516 13.1032C4.25559 13.221 5.59851 13.2545 6.08685 12.4465C6.69728 11.4364 4.86601 10.6283 5.47643 9.21419C6.08685 7.80006 7.10422 8.40612 8.73202 7.80006C10.22 7.24606 10.5633 5.57786 9.95286 4.36575C9.64765 3.7597 8.73202 3.82536 7.71465 4.36575C6.69728 4.90614 5.06948 4.94714 4.25559 2.08496C2.30481 3.25133 1 5.37441 1 7.80006Z" fill="url(#paint0_linear_1390_13459)"/>
<path d="M32.9996 7.80002C32.9996 4.11816 29.9934 1.13342 26.285 1.13342C25.6067 1.80682 24.4537 3.47683 25.2676 4.76975C26.285 6.38589 28.1162 4.16369 28.9301 5.98186C29.744 7.80002 28.9301 8.20405 29.5405 10.0222C30.0553 11.5554 32.2207 10.1569 32.7469 9.61818C32.9115 9.04021 32.9996 8.43033 32.9996 7.80002Z" fill="url(#paint1_linear_1390_13459)"/>
<path d="M22.2155 13.1032C23.3446 13.9586 24.755 14.4666 26.285 14.4666C26.4907 14.4666 26.6943 14.4574 26.8954 14.4394C27.0989 13.7751 27.0582 12.2444 25.2676 11.4363C23.0294 10.4263 25.2676 8.81011 23.4363 7.80002C21.9713 6.99195 20.5033 8.94479 19.9524 10.0222C20.3918 11.2565 21.1869 12.324 22.2155 13.1032Z" fill="url(#paint2_linear_1390_13459)"/>
<defs>
<linearGradient id="paint0_linear_1390_13459" x1="1" y1="2.08496" x2="10.5715" y2="2.37918" gradientUnits="userSpaceOnUse">
<stop stop-color="white" stop-opacity="0.55"/>
<stop offset="1" stop-color="white" stop-opacity="0.24"/>
</linearGradient>
<linearGradient id="paint1_linear_1390_13459" x1="19.9524" y1="1.13342" x2="33.463" y2="1.6208" gradientUnits="userSpaceOnUse">
<stop stop-color="white" stop-opacity="0.55"/>
<stop offset="1" stop-color="white" stop-opacity="0.24"/>
</linearGradient>
<linearGradient id="paint2_linear_1390_13459" x1="19.9524" y1="1.13342" x2="33.463" y2="1.6208" gradientUnits="userSpaceOnUse">
<stop stop-color="white" stop-opacity="0.55"/>
<stop offset="1" stop-color="white" stop-opacity="0.24"/>
</linearGradient>
</defs>
</svg>
