<svg width="18" height="22" viewBox="0 0 18 22" fill="none" xmlns="http://www.w3.org/2000/svg">
<mask id="path-1-inside-1_1390_13483" fill="white">
<path d="M17.0802 10.6314C16.3205 9.7442 15.9753 8.97433 15.9753 7.66816V7.22509C15.9753 5.52194 15.5846 4.42631 14.7329 3.32963C13.4202 1.62648 11.2103 0.599976 9.04694 0.599976H8.95392C6.83604 0.599976 4.69542 1.57934 3.35999 3.21231C2.46177 4.33203 2.02559 5.47585 2.02559 7.22509V7.66816C2.02559 8.97433 1.7031 9.7442 0.91962 10.6314C0.344929 11.285 0.159912 12.124 0.159912 13.0342C0.159912 13.9434 0.459661 14.8065 1.05812 15.5073C1.84057 16.3473 2.94551 16.8836 4.07422 16.9768C5.70836 17.1633 7.34251 17.2335 9.00043 17.2335C10.6573 17.2335 12.2925 17.1161 13.9266 16.9768C15.0543 16.8836 16.1593 16.3473 16.9427 15.5073C17.5412 14.8065 17.8399 13.9434 17.8399 13.0342C17.8399 12.124 17.6559 11.285 17.0802 10.6314Z"/>
</mask>
<path d="M14.7329 3.32963L13.5448 4.24533L13.5482 4.24968L14.7329 3.32963ZM3.35999 3.21231L2.19883 2.26273L2.19435 2.2682L2.18993 2.27372L3.35999 3.21231ZM0.91962 10.6314L-0.20472 9.63848L-0.206865 9.64092L0.91962 10.6314ZM1.05812 15.5073L-0.0825068 16.4814L-0.061524 16.506L-0.0395028 16.5296L1.05812 15.5073ZM4.07422 16.9768L4.24425 15.4865L4.221 15.4839L4.19768 15.4819L4.07422 16.9768ZM13.9266 16.9768L13.8031 15.4819L13.7992 15.4823L13.9266 16.9768ZM16.9427 15.5073L18.0397 16.5303L18.0621 16.5064L18.0834 16.4814L16.9427 15.5073ZM18.2196 9.65575C17.9062 9.28985 17.7408 9.02045 17.6411 8.76374C17.5428 8.51073 17.4753 8.18444 17.4753 7.66816H14.4753C14.4753 8.45805 14.5804 9.16977 14.8446 9.85004C15.1075 10.5266 15.4945 11.0857 15.9409 11.607L18.2196 9.65575ZM17.4753 7.66816V7.22509H14.4753V7.66816H17.4753ZM17.4753 7.22509C17.4753 5.2188 16.9913 3.7922 15.9176 2.40957L13.5482 4.24968C14.1778 5.06041 14.4753 5.82507 14.4753 7.22509H17.4753ZM15.9209 2.41393C14.3067 0.319599 11.646 -0.900024 9.04694 -0.900024V2.09998C10.7746 2.09998 12.5336 2.93335 13.5448 4.24532L15.9209 2.41393ZM9.04694 -0.900024H8.95392V2.09998H9.04694V-0.900024ZM8.95392 -0.900024C6.40367 -0.900024 3.83014 0.267951 2.19883 2.26273L4.52114 4.1619C5.5607 2.89073 7.26841 2.09998 8.95392 2.09998V-0.900024ZM2.18993 2.27372C1.0686 3.67158 0.525589 5.15016 0.525589 7.22509H3.52559C3.52559 5.80154 3.85495 4.99249 4.53005 4.1509L2.18993 2.27372ZM0.525589 7.22509V7.66816H3.52559V7.22509H0.525589ZM0.525589 7.66816C0.525589 8.19583 0.460643 8.5221 0.365469 8.77083C0.270505 9.019 0.1106 9.28143 -0.204717 9.63848L2.04396 11.6243C2.51212 11.0942 2.9052 10.5281 3.16735 9.84296C3.42929 9.15841 3.52559 8.44665 3.52559 7.66816H0.525589ZM-0.206865 9.64092C-1.11984 10.6793 -1.34009 11.9408 -1.34009 13.0342H1.65991C1.65991 12.3072 1.80969 11.8907 2.0461 11.6219L-0.206865 9.64092ZM-1.34009 13.0342C-1.34009 14.2819 -0.924772 15.4952 -0.0825068 16.4814L2.19876 14.5331C1.84409 14.1178 1.65991 13.605 1.65991 13.0342H-1.34009ZM-0.0395028 16.5296C0.995552 17.6409 2.44696 18.3475 3.95075 18.4717L4.19768 15.4819C3.44405 15.4197 2.68559 15.0538 2.15575 14.4849L-0.0395028 16.5296ZM3.90418 18.4672C5.6079 18.6615 7.30064 18.7335 9.00043 18.7335V15.7335C7.38438 15.7335 5.80883 15.665 4.24425 15.4865L3.90418 18.4672ZM9.00043 18.7335C10.7238 18.7335 12.4111 18.6115 14.0541 18.4714L13.7992 15.4823C12.1739 15.6208 10.5908 15.7335 9.00043 15.7335V18.7335ZM14.0502 18.4717C15.5532 18.3475 17.0041 17.6407 18.0397 16.5303L15.8458 14.4842C15.3144 15.0539 14.5554 15.4197 13.8031 15.4819L14.0502 18.4717ZM18.0834 16.4814C18.9264 15.4943 19.3399 14.2807 19.3399 13.0342H16.3399C16.3399 13.6062 16.156 14.1187 15.8021 14.5331L18.0834 16.4814ZM19.3399 13.0342C19.3399 11.9422 19.1213 10.6793 18.2058 9.63992L15.9546 11.6229C16.1905 11.8907 16.3399 12.3058 16.3399 13.0342H19.3399Z" fill="#D1D5DB" mask="url(#path-1-inside-1_1390_13483)"/>
<path d="M7.14247 20.0128L7.1247 19.9989L7.10612 19.9861C6.87087 19.8237 6.7351 19.599 6.70927 19.3871C6.71127 19.3854 6.71357 19.3835 6.7162 19.3814C6.73902 19.3635 6.77847 19.3391 6.83962 19.3135C6.89736 19.2893 6.96517 19.2678 7.04001 19.25C7.04661 19.2489 7.06392 19.2461 7.09521 19.2425C7.13405 19.238 7.18437 19.2333 7.24651 19.2286C7.37083 19.2193 7.52885 19.2111 7.71257 19.2045C8.07936 19.1911 8.53091 19.1843 8.98556 19.1843C9.4402 19.1843 9.89175 19.1911 10.2585 19.2045C10.4423 19.2111 10.6003 19.2193 10.7246 19.2286C10.7867 19.2333 10.8371 19.238 10.8759 19.2425C10.9072 19.2461 10.9245 19.2489 10.9311 19.25C11.0059 19.2678 11.0738 19.2893 11.1315 19.3135C11.1926 19.3391 11.2321 19.3635 11.2549 19.3814C11.2575 19.3835 11.2598 19.3854 11.2618 19.3871C11.236 19.5991 11.1 19.8246 10.8642 19.9884L10.8473 20.0002L10.831 20.0129C10.412 20.3394 9.92109 20.5464 9.40805 20.6218C9.11676 20.6591 8.83705 20.659 8.56677 20.6222C8.05166 20.5471 7.56037 20.3401 7.14247 20.0128Z" stroke="#D1D5DB" stroke-width="1.5"/>
</svg>
