<svg width="31" height="31" viewBox="0 0 31 31" fill="none" xmlns="http://www.w3.org/2000/svg">
<g filter="url(#filter0_b_1390_8152)">
<path d="M0.333252 15.3333C0.333252 6.86497 7.19822 0 15.6666 0V0C24.135 0 30.9999 6.86497 30.9999 15.3333V15.3333C30.9999 23.8017 24.135 30.6667 15.6666 30.6667V30.6667C7.19822 30.6667 0.333252 23.8017 0.333252 15.3333V15.3333Z" fill="url(#paint0_linear_1390_8152)"/>
<path d="M20.8666 12.6369C20.8666 12.6369 21.083 8.82564 17.2667 7.86566M10.4668 12.6369C10.4668 12.6369 10.2505 8.82564 14.0668 7.86566M14.0668 7.86566V7.86566C14.0668 7.32169 14.5077 6.88072 15.0517 6.88072H16.2818C16.8257 6.88072 17.2667 7.32169 17.2667 7.86566V7.86566M14.0668 7.86566V7.86566C14.0668 8.38137 14.4848 8.79943 15.0006 8.79943H16.3329C16.8486 8.79943 17.2667 8.38137 17.2667 7.86566V7.86566" stroke="white" stroke-width="1.75"/>
<path fill-rule="evenodd" clip-rule="evenodd" d="M9.82978 12.0493H15.6667H21.5036H22.9564L20.9588 21.2002C20.739 22.2072 20.0155 23.0331 19.0048 23.2351C18.1462 23.4067 16.9921 23.566 15.6667 23.566C14.3413 23.566 13.1872 23.4067 12.3286 23.2351C11.3178 23.0331 10.5944 22.2072 10.3746 21.2002L8.37695 12.0493H9.82978ZM15.6666 13.3784C16.0808 13.3784 16.4166 13.7141 16.4166 14.1284V16.6837L18.972 16.6837C19.3862 16.6837 19.722 17.0195 19.722 17.4337C19.722 17.8479 19.3862 18.1837 18.972 18.1837L16.4166 18.1837V20.7391C16.4166 21.1533 16.0808 21.4891 15.6666 21.4891C15.2524 21.4891 14.9166 21.1533 14.9166 20.7391V18.1837H12.3613C11.9471 18.1837 11.6113 17.8479 11.6113 17.4337C11.6113 17.0195 11.9471 16.6837 12.3613 16.6837H14.9166V14.1284C14.9166 13.7141 15.2524 13.3784 15.6666 13.3784Z" fill="white"/>
</g>
<defs>
<filter id="filter0_b_1390_8152" x="-9.66675" y="-10" width="50.6667" height="50.6667" filterUnits="userSpaceOnUse" color-interpolation-filters="sRGB">
<feFlood flood-opacity="0" result="BackgroundImageFix"/>
<feGaussianBlur in="BackgroundImage" stdDeviation="5"/>
<feComposite in2="SourceAlpha" operator="in" result="effect1_backgroundBlur_1390_8152"/>
<feBlend mode="normal" in="SourceGraphic" in2="effect1_backgroundBlur_1390_8152" result="shape"/>
</filter>
<linearGradient id="paint0_linear_1390_8152" x1="0.333252" y1="0" x2="32.0873" y2="1.17058" gradientUnits="userSpaceOnUse">
<stop stop-color="white" stop-opacity="0.55"/>
<stop offset="1" stop-color="white" stop-opacity="0.24"/>
</linearGradient>
</defs>
</svg>
